<mxfile host="app.diagrams.net" modified="2021-11-15T14:46:10.457Z" agent="5.0 (Windows NT 10.0; Win64; x64) AppleWebKit/537.36 (KHTML, like Gecko) Chrome/95.0.4638.69 Safari/537.36 Edg/95.0.1020.53" etag="Vq6_webgM0TmPC2k063U" version="15.7.3" type="github">
  <diagram id="cIaQJNa-sUKXKcVw03_b" name="Page-1">
    <mxGraphModel dx="868" dy="482" grid="0" gridSize="10" guides="1" tooltips="1" connect="1" arrows="1" fold="1" page="1" pageScale="1" pageWidth="827" pageHeight="1169" math="0" shadow="0">
      <root>
        <mxCell id="0" />
        <mxCell id="1" parent="0" />
        <mxCell id="HJpWg2J9JC7-VfmU3f_n-4" value="" style="edgeStyle=orthogonalEdgeStyle;rounded=0;orthogonalLoop=1;jettySize=auto;html=1;fontSize=14;" edge="1" parent="1" source="HJpWg2J9JC7-VfmU3f_n-1" target="HJpWg2J9JC7-VfmU3f_n-2">
          <mxGeometry relative="1" as="geometry" />
        </mxCell>
        <mxCell id="HJpWg2J9JC7-VfmU3f_n-1" value="ROOT" style="text;html=1;strokeColor=none;fillColor=none;align=center;verticalAlign=middle;whiteSpace=wrap;rounded=0;fontSize=14;" vertex="1" parent="1">
          <mxGeometry x="320" y="30" width="60" height="30" as="geometry" />
        </mxCell>
        <mxCell id="HJpWg2J9JC7-VfmU3f_n-5" value="" style="edgeStyle=orthogonalEdgeStyle;rounded=0;orthogonalLoop=1;jettySize=auto;html=1;fontSize=14;" edge="1" parent="1" source="HJpWg2J9JC7-VfmU3f_n-2" target="HJpWg2J9JC7-VfmU3f_n-3">
          <mxGeometry relative="1" as="geometry" />
        </mxCell>
        <mxCell id="HJpWg2J9JC7-VfmU3f_n-14" style="edgeStyle=none;rounded=0;orthogonalLoop=1;jettySize=auto;html=1;exitX=0.75;exitY=1;exitDx=0;exitDy=0;fontSize=12;" edge="1" parent="1" source="HJpWg2J9JC7-VfmU3f_n-2">
          <mxGeometry relative="1" as="geometry">
            <mxPoint x="443" y="164" as="targetPoint" />
          </mxGeometry>
        </mxCell>
        <mxCell id="HJpWg2J9JC7-VfmU3f_n-2" value="BODY" style="text;html=1;strokeColor=none;fillColor=none;align=center;verticalAlign=middle;whiteSpace=wrap;rounded=0;fontSize=14;" vertex="1" parent="1">
          <mxGeometry x="320" y="100" width="60" height="30" as="geometry" />
        </mxCell>
        <mxCell id="HJpWg2J9JC7-VfmU3f_n-10" style="rounded=0;orthogonalLoop=1;jettySize=auto;html=1;exitX=0.25;exitY=1;exitDx=0;exitDy=0;fontSize=12;entryX=0.5;entryY=0;entryDx=0;entryDy=0;" edge="1" parent="1" source="HJpWg2J9JC7-VfmU3f_n-3" target="HJpWg2J9JC7-VfmU3f_n-7">
          <mxGeometry relative="1" as="geometry" />
        </mxCell>
        <mxCell id="HJpWg2J9JC7-VfmU3f_n-11" style="edgeStyle=none;rounded=0;orthogonalLoop=1;jettySize=auto;html=1;exitX=0.5;exitY=1;exitDx=0;exitDy=0;entryX=0.5;entryY=0.4;entryDx=0;entryDy=0;entryPerimeter=0;fontSize=12;" edge="1" parent="1" source="HJpWg2J9JC7-VfmU3f_n-3" target="HJpWg2J9JC7-VfmU3f_n-8">
          <mxGeometry relative="1" as="geometry" />
        </mxCell>
        <mxCell id="HJpWg2J9JC7-VfmU3f_n-12" style="edgeStyle=none;rounded=0;orthogonalLoop=1;jettySize=auto;html=1;exitX=0.75;exitY=1;exitDx=0;exitDy=0;entryX=0.429;entryY=0.5;entryDx=0;entryDy=0;entryPerimeter=0;fontSize=12;" edge="1" parent="1" source="HJpWg2J9JC7-VfmU3f_n-3" target="HJpWg2J9JC7-VfmU3f_n-9">
          <mxGeometry relative="1" as="geometry" />
        </mxCell>
        <mxCell id="HJpWg2J9JC7-VfmU3f_n-3" value="&lt;p class=&quot;MsoNormal&quot;&gt;&lt;font style=&quot;font-size: 12px&quot;&gt;COMMON_INFO&lt;/font&gt;&lt;/p&gt;" style="text;html=1;strokeColor=none;fillColor=none;align=center;verticalAlign=middle;whiteSpace=wrap;rounded=0;" vertex="1" parent="1">
          <mxGeometry x="320" y="170" width="60" height="30" as="geometry" />
        </mxCell>
        <mxCell id="HJpWg2J9JC7-VfmU3f_n-7" value="&lt;p class=&quot;MsoNormal&quot;&gt;&lt;font style=&quot;font-size: 12px&quot;&gt;BUSI_APP_ID&lt;/font&gt;&lt;/p&gt;" style="text;html=1;strokeColor=none;fillColor=none;align=center;verticalAlign=middle;whiteSpace=wrap;rounded=0;" vertex="1" parent="1">
          <mxGeometry x="210" y="250" width="60" height="30" as="geometry" />
        </mxCell>
        <mxCell id="HJpWg2J9JC7-VfmU3f_n-8" value="&lt;p class=&quot;MsoNormal&quot;&gt;&lt;span style=&quot;font-weight: normal&quot;&gt;&lt;font face=&quot;楷体_GB2312&quot; style=&quot;font-size: 12px&quot;&gt;SEQ_ID&lt;/font&gt;&lt;/span&gt;&lt;/p&gt;" style="text;whiteSpace=wrap;html=1;fontSize=12;" vertex="1" parent="1">
          <mxGeometry x="325" y="230" width="50" height="50" as="geometry" />
        </mxCell>
        <mxCell id="HJpWg2J9JC7-VfmU3f_n-9" value="&lt;p class=&quot;MsoNormal&quot;&gt;&lt;span style=&quot;font-weight: normal&quot;&gt;&lt;font face=&quot;楷体_GB2312&quot; style=&quot;font-size: 12px&quot;&gt;SYSTEM_V&lt;/font&gt;&lt;/span&gt;&lt;/p&gt;" style="text;whiteSpace=wrap;html=1;fontSize=12;" vertex="1" parent="1">
          <mxGeometry x="430" y="230" width="70" height="40" as="geometry" />
        </mxCell>
        <mxCell id="HJpWg2J9JC7-VfmU3f_n-15" value="&lt;span style=&quot;color: rgb(0, 0, 0); font-size: 12px; font-style: normal; font-weight: 400; letter-spacing: normal; text-align: center; text-indent: 0px; text-transform: none; word-spacing: 0px; background-color: rgb(248, 249, 250); display: inline; float: none;&quot;&gt;REQUEST_INFO&lt;/span&gt;" style="text;whiteSpace=wrap;html=1;fontSize=12;" vertex="1" parent="1">
          <mxGeometry x="424" y="168" width="113" height="28" as="geometry" />
        </mxCell>
      </root>
    </mxGraphModel>
  </diagram>
</mxfile>
